<svg height="512" viewBox="0 0 512 512" width="512" xmlns="http://www.w3.org/2000/svg"><g id="Filled_outline" data-name="Filled outline"><path d="m128 200h-16a56 56 0 0 1 -56-56 56 56 0 0 1 56-56h64a16 16 0 0 0 16-16 16 16 0 0 0 -16-16h-64a88 88 0 0 0 -88 88 88 88 0 0 0 88 88h16z" fill="#f79d16"/><path d="m272 344-16 40v72h40v-64l40-48z" fill="#f98500"/><path d="m208 344h-88v48l40 64h48l-40-64z" fill="#f98500"/><path d="m384 302v50l56 104h-48l-64-96-6-16h-160.91a84.652 84.652 0 0 1 -46.63 33.58l-50.46 14.42v64h-40v-88l48-32v-80a56 56 0 0 1 56-56h216l1.1-.22 78.9-15.78 4.04-8.07a54.534 54.534 0 0 1 10.23-14.2l9.73-9.73a54.641 54.641 0 0 1 16 38.63v1.37l16 16v24l8 24-24 24-40-8z" fill="#ffb531"/><path d="m384 302v50l56 104h-48l-64-96-6-16h-160.91a84.652 84.652 0 0 1 -46.63 33.58l-50.46 14.42v64h-40v-88l48-32v-34.24c89.56-16.25 190.6-46.38 273.1-101.98l78.9-15.78 4.04-8.07a54.534 54.534 0 0 1 10.23-14.2l9.73-9.73a54.641 54.641 0 0 1 16 38.63v1.37l16 16v24l8 24-24 24-40-8z" fill="#ffa912"/><path d="m495.59 253.47-7.59-22.77v-22.7a8 8 0 0 0 -2.343-5.657l-13.687-13.687a62.183 62.183 0 0 0 -18.314-42.313 8 8 0 0 0 -11.313 0l-9.731 9.731a62.493 62.493 0 0 0 -11.732 16.278l-2.286 4.571-75.386 15.077h-231.208a48 48 0 1 1 0-96h64a24 24 0 1 0 0-48h-64a96.025 96.025 0 0 0 -42.5 182.1 63.611 63.611 0 0 0 -5.5 25.9v75.719l-44.438 29.625a8 8 0 0 0 -3.562 6.656v88a8 8 0 0 0 8 8h40a8 8 0 0 0 8-8v-57.966l40-11.428v5.394a7.994 7.994 0 0 0 1.216 4.24l40 64a8 8 0 0 0 6.784 3.76h48a8 8 0 0 0 6.784-12.24l-36.93-59.088 33.893-40.672h48.437l-11.612 29.029a8 8 0 0 0 -.572 2.971v72a8 8 0 0 0 8 8h40a8 8 0 0 0 8-8v-61.1l20.944-25.064 60.4 90.6a8 8 0 0 0 6.656 3.564h48a8 8 0 0 0 7.044-11.793l-55.044-102.224v-43.983l33.938-25.454 36.493 7.3a7.994 7.994 0 0 0 7.226-2.188l24-24a8 8 0 0 0 1.933-8.188zm-440.154-52.909a79.991 79.991 0 0 1 56.564-136.561h64a8 8 0 0 1 0 16h-64a64 64 0 0 0 -21.585 124.245 64.487 64.487 0 0 0 -12.582 12.086 79.577 79.577 0 0 1 -22.397-15.77zm106.418 186.317a8 8 0 0 0 -.638 9.362l32.35 51.76h-29.132l-36.434-58.294v-8.5a93.061 93.061 0 0 0 37.082-29.206h25.838zm128.007-.008a8 8 0 0 0 -1.861 5.13v56h-24v-62.459l13.416-33.541h39.04l.788 2.1zm171.509-115.554-35.8-7.161a8 8 0 0 0 -6.37 1.445l-40 30a8 8 0 0 0 -3.2 6.4v50a8 8 0 0 0 .956 3.793l49.65 92.207h-30.325l-61.114-91.671-23.677-63.138-14.98 5.618 13.946 37.191h-135.6a92.25 92.25 0 0 0 9.144-40h-16a77.173 77.173 0 0 1 -55.735 73.89l-50.465 14.418a8 8 0 0 0 -5.8 7.692v56h-24v-75.719l44.438-29.625a7.987 7.987 0 0 0 3.541-6.323h.021v-80.333a48.054 48.054 0 0 1 48-48h216a8.026 8.026 0 0 0 1.569-.155l80-16a8 8 0 0 0 5.586-4.268l4.035-8.07a46.549 46.549 0 0 1 8.736-12.119l3.594-3.594a46.293 46.293 0 0 1 8.48 26.833v1.373a8 8 0 0 0 2.343 5.657l13.657 13.656v20.687a8.027 8.027 0 0 0 .41 2.53l6.437 19.309z"/><path d="m440 216h16v16h-16z"/></g></svg>